<svg id="Capa_1" enable-background="new 0 0 511.711 511.711" height="512" viewBox="0 0 511.711 511.711" width="512" xmlns="http://www.w3.org/2000/svg"><g><g><g><path d="m453.561 278.885c0 99.401-108.174 184.881-164.491 222.647-20.238 13.571-46.192 13.571-66.429 0-56.317-37.766-164.491-123.246-164.491-222.647v-24.438l395.411-.069z" fill="#e2e9ee"/><path d="m256.128 254.413v257.292c11.457-.053 22.903-3.441 32.942-10.174 56.317-37.766 164.491-123.246 164.491-222.647v-24.507z" fill="#bbd0d5"/></g><g><g><path d="m255.855 439.812c-8.284 0-15 6.716-15 15v54.959c9.842 2.585 20.158 2.585 30 0v-54.959c0-8.284-6.716-15-15-15z" fill="#bbd0d5"/><path d="m256.128 439.826v71.88c4.949-.023 9.896-.665 14.728-1.934v-54.959c-.001-8.193-6.571-14.841-14.728-14.987z" fill="#8c9eac"/></g><g><g><path d="m256.029 402.202c-24.659 0-47.009-10.484-56.94-26.71-4.325-7.066-2.102-16.3 4.963-20.625 7.067-4.325 16.299-2.103 20.624 4.963 3.763 6.148 15.74 12.371 31.353 12.371 16.048 0 27.424-6.289 31.203-12.133 4.498-6.957 13.783-8.95 20.741-4.451 6.956 4.498 8.949 13.784 4.45 20.741-10.307 15.942-31.916 25.844-56.394 25.844z" fill="#dd5958"/><path d="m307.973 355.618c-6.958-4.499-16.243-2.507-20.741 4.451-3.772 5.832-15.11 12.105-31.105 12.131v30.001c24.437-.027 46.002-9.923 56.296-25.842 4.5-6.957 2.506-16.243-4.45-20.741z" fill="#d8225b"/></g><g><path d="m407.871 300.895c-5.496-6.198-14.977-6.768-21.175-1.271l-50.233 44.546c-5.642 5.003-12.9 7.758-20.44 7.758-9.64 0-18.85-4.602-24.638-12.311l-23.261-30.981c-2.946-3.924-7.446-5.976-12.002-5.978-4.556.002-9.056 2.054-12.002 5.978l-23.261 30.981c-5.788 7.71-14.998 12.311-24.638 12.311-7.54 0-14.799-2.755-20.441-7.758l-50.233-44.546c-6.198-5.497-15.679-4.927-21.175 1.271-5.497 6.198-4.928 15.679 1.271 21.175l50.233 44.546c11.135 9.874 25.463 15.312 40.345 15.312 19.026 0 37.206-9.084 48.629-24.3l11.271-15.013 11.272 15.013c11.423 15.216 29.603 24.3 48.629 24.3 14.882 0 29.21-5.438 40.345-15.312l50.233-44.546c6.199-5.496 6.768-14.977 1.271-21.175z" fill="#bbd0d5"/><path d="m407.871 300.895c-5.496-6.198-14.977-6.768-21.175-1.271l-50.233 44.546c-5.642 5.003-12.9 7.758-20.44 7.758-9.64 0-18.85-4.602-24.638-12.311l-23.261-30.981c-2.945-3.922-7.443-5.974-11.996-5.977v39.965l11.266 15.005c11.423 15.216 29.603 24.3 48.629 24.3 14.882 0 29.21-5.438 40.345-15.312l50.233-44.546c6.198-5.497 6.767-14.978 1.27-21.176z" fill="#8c9eac"/></g></g></g></g><g><g><path d="m346.629 0h-181.548c-59.057 0-106.931 49.861-106.931 111.367v143.08c0 41.427 30.285 77.126 71.343 82.646 3.878.521 7.833.791 11.847.791 38.435 0 71.084-24.68 82.85-58.999v26.492c0 17.589 14.313 31.848 31.968 31.848 17.656 0 31.968-14.259 31.968-31.848v-26.492c11.767 34.32 44.415 58.999 82.85 58.999.801 0 1.599-.011 2.394-.032 44.819-1.2 80.19-38.639 80.19-83.474v-143.011c.001-61.506-47.874-111.367-106.931-111.367z" fill="#fbf4f4"/><path d="m346.629 0h-90.502v337.224c.01 0 .021.001.031.001 17.656 0 31.968-14.259 31.968-31.848v-26.492c11.767 34.32 44.415 58.999 82.85 58.999.801 0 1.599-.011 2.394-.032 44.819-1.199 80.19-38.639 80.19-83.474v-143.011c.001-61.506-47.874-111.367-106.931-111.367z" fill="#e2e9ee"/></g><g><g><path d="m299.103 151.526c-2.501 0-5.035-.626-7.367-1.944-7.212-4.077-9.754-13.227-5.678-20.439 19.372-34.274 65.989-44.717 103.916-23.282 7.212 4.076 9.754 13.227 5.678 20.439s-13.225 9.754-20.439 5.678c-23.524-13.297-51.805-7.947-63.037 11.927-2.759 4.879-7.84 7.621-13.073 7.621z" fill="#8c9eac"/><path d="m212.607 151.526c-5.232.001-10.314-2.742-13.072-7.622-5.263-9.311-14.489-15.774-25.981-18.197-12.193-2.57-25.351-.344-37.056 6.271-7.212 4.075-16.363 1.533-20.439-5.678-4.076-7.212-1.534-16.363 5.678-20.439 18.065-10.21 38.665-13.589 58.007-9.508 20.042 4.227 36.346 15.872 45.908 32.791 4.076 7.212 1.534 16.363-5.678 20.439-2.332 1.317-4.867 1.943-7.367 1.943z" fill="#bbd0d5"/></g><g><path d="m327.406 226.261c-1.779 0-3.589-.319-5.351-.992-7.738-2.956-11.615-11.626-8.659-19.365 6.774-17.731 23.09-29.188 41.567-29.188 18.1 0 34.29 11.138 41.248 28.374 3.101 7.682-.613 16.423-8.296 19.524-7.684 3.1-16.424-.613-19.524-8.296-2.354-5.833-7.625-9.603-13.428-9.603-5.931 0-11.246 3.884-13.542 9.895-2.284 5.978-7.976 9.651-14.015 9.651z" fill="#8c9eac"/><path d="m129.407 226.261c-1.78 0-3.589-.319-5.35-.992-7.739-2.956-11.616-11.626-8.659-19.365 6.774-17.731 23.089-29.188 41.566-29.188 18.1 0 34.29 11.138 41.247 28.374 3.101 7.682-.613 16.423-8.295 19.524-7.679 3.102-16.423-.612-19.524-8.296-2.354-5.833-7.626-9.603-13.428-9.603-5.93 0-11.246 3.884-13.542 9.895-2.284 5.978-7.976 9.651-14.015 9.651z" fill="#bbd0d5"/></g></g></g></g></svg>